<svg width="16" height="12" viewBox="0 0 16 12" fill="none" xmlns="http://www.w3.org/2000/svg">
<path d="M5.33332 6.5C5.15651 6.5 4.98694 6.44732 4.86192 6.35355C4.73689 6.25979 4.66666 6.13261 4.66666 6C4.66666 5.86739 4.73689 5.74021 4.86192 5.64645C4.98694 5.55268 5.15651 5.5 5.33332 5.5C5.51013 5.5 5.6797 5.55268 5.80473 5.64645C5.92975 5.74021 5.99999 5.86739 5.99999 6C5.99999 6.13261 5.92975 6.25979 5.80473 6.35355C5.6797 6.44732 5.51013 6.5 5.33332 6.5ZM5.33332 8.5C5.15651 8.5 4.98694 8.44732 4.86192 8.35355C4.73689 8.25979 4.66666 8.13261 4.66666 8C4.66666 7.86739 4.73689 7.74021 4.86192 7.64645C4.98694 7.55268 5.15651 7.5 5.33332 7.5C5.51013 7.5 5.6797 7.55268 5.80473 7.64645C5.92975 7.74021 5.99999 7.86739 5.99999 8C5.99999 8.13261 5.92975 8.25979 5.80473 8.35355C5.6797 8.44732 5.51013 8.5 5.33332 8.5ZM7.33332 8C7.33332 8.13261 7.40356 8.25979 7.52859 8.35355C7.65361 8.44732 7.82318 8.5 7.99999 8.5C8.1768 8.5 8.34637 8.44732 8.47139 8.35355C8.59642 8.25979 8.66666 8.13261 8.66666 8C8.66666 7.86739 8.59642 7.74021 8.47139 7.64645C8.34637 7.55268 8.1768 7.5 7.99999 7.5C7.82318 7.5 7.65361 7.55268 7.52859 7.64645C7.40356 7.74021 7.33332 7.86739 7.33332 8ZM10.6667 8.5C10.4898 8.5 10.3203 8.44732 10.1953 8.35355C10.0702 8.25979 9.99999 8.13261 9.99999 8C9.99999 7.86739 10.0702 7.74021 10.1953 7.64645C10.3203 7.55268 10.4898 7.5 10.6667 7.5C10.8435 7.5 11.013 7.55268 11.1381 7.64645C11.2631 7.74021 11.3333 7.86739 11.3333 8C11.3333 8.13261 11.2631 8.25979 11.1381 8.35355C11.013 8.44732 10.8435 8.5 10.6667 8.5ZM7.33332 6C7.33332 6.13261 7.40356 6.25979 7.52859 6.35355C7.65361 6.44732 7.82318 6.5 7.99999 6.5C8.1768 6.5 8.34637 6.44732 8.47139 6.35355C8.59642 6.25979 8.66666 6.13261 8.66666 6C8.66666 5.86739 8.59642 5.74021 8.47139 5.64645C8.34637 5.55268 8.1768 5.5 7.99999 5.5C7.82318 5.5 7.65361 5.55268 7.52859 5.64645C7.40356 5.74021 7.33332 5.86739 7.33332 6ZM10.6667 6.5C10.4898 6.5 10.3203 6.44732 10.1953 6.35355C10.0702 6.25979 9.99999 6.13261 9.99999 6C9.99999 5.86739 10.0702 5.74021 10.1953 5.64645C10.3203 5.55268 10.4898 5.5 10.6667 5.5C10.8435 5.5 11.013 5.55268 11.1381 5.64645C11.2631 5.74021 11.3333 5.86739 11.3333 6C11.3333 6.13261 11.2631 6.25979 11.1381 6.35355C11.013 6.44732 10.8435 6.5 10.6667 6.5ZM5.33332 3.5C5.15651 3.5 4.98694 3.55268 4.86192 3.64645C4.73689 3.74021 4.66666 3.86739 4.66666 4C4.66666 4.13261 4.73689 4.25979 4.86192 4.35355C4.98694 4.44732 5.15651 4.5 5.33332 4.5H10.6667C10.8435 4.5 11.013 4.44732 11.1381 4.35355C11.2631 4.25979 11.3333 4.13261 11.3333 4C11.3333 3.86739 11.2631 3.74021 11.1381 3.64645C11.013 3.55268 10.8435 3.5 10.6667 3.5H5.33332Z" fill="#A7A7A7"/>
<path fill-rule="evenodd" clip-rule="evenodd" d="M4 1.5C3.46957 1.5 2.96086 1.65804 2.58579 1.93934C2.21071 2.22064 2 2.60218 2 3V9C2 9.39782 2.21071 9.77936 2.58579 10.0607C2.96086 10.342 3.46957 10.5 4 10.5H12C12.5304 10.5 13.0391 10.342 13.4142 10.0607C13.7893 9.77936 14 9.39782 14 9V3C14 2.60218 13.7893 2.22064 13.4142 1.93934C13.0391 1.65804 12.5304 1.5 12 1.5H4ZM12 2.5H4C3.82319 2.5 3.65362 2.55268 3.5286 2.64645C3.40357 2.74021 3.33333 2.86739 3.33333 3V9C3.33333 9.13261 3.40357 9.25979 3.5286 9.35355C3.65362 9.44732 3.82319 9.5 4 9.5H12C12.1768 9.5 12.3464 9.44732 12.4714 9.35355C12.5964 9.25979 12.6667 9.13261 12.6667 9V3C12.6667 2.86739 12.5964 2.74021 12.4714 2.64645C12.3464 2.55268 12.1768 2.5 12 2.5Z" fill="#A7A7A7"/>
</svg>
