<svg width="18" height="18" viewBox="0 0 18 18" fill="none" xmlns="http://www.w3.org/2000/svg">
<path d="M10.2867 7.71306C9.60408 7.03075 8.67846 6.64746 7.71334 6.64746C6.74821 6.64746 5.82259 7.03075 5.14 7.71306L2.56584 10.2864C1.88324 10.969 1.49976 11.8948 1.49976 12.8601C1.49976 13.8255 1.88324 14.7513 2.56584 15.4339C3.24844 16.1165 4.17424 16.5 5.13959 16.5C6.10493 16.5 7.03074 16.1165 7.71334 15.4339L9 14.1472" stroke="black" stroke-width="1.66667" stroke-linecap="round" stroke-linejoin="round"/>
<path d="M7.71332 10.2864C8.39591 10.9687 9.32152 11.352 10.2867 11.352C11.2518 11.352 12.1774 10.9687 12.86 10.2864L15.4342 7.71309C16.1168 7.03049 16.5002 6.10469 16.5002 5.13934C16.5002 4.174 16.1168 3.24819 15.4342 2.56559C14.7516 1.88299 13.8257 1.49951 12.8604 1.49951C11.8951 1.49951 10.9693 1.88299 10.2867 2.56559L8.99998 3.85226" stroke="black" stroke-width="1.66667" stroke-linecap="round" stroke-linejoin="round"/>
</svg>
